<svg width="24" height="24" viewBox="0 0 24 24" fill="none" xmlns="http://www.w3.org/2000/svg">
<path fill-rule="evenodd" clip-rule="evenodd" d="M12 2C6.47715 2 2 6.47715 2 12C2 14.5714 2.96975 16.9158 4.5656 18.6883C5.40015 17.0904 7.07231 16 9 16H15C16.9277 16 18.5998 17.0904 19.4344 18.6883C21.0302 16.9158 22 14.5714 22 12C22 6.47715 17.5228 2 12 2ZM17.8634 20.1016C17.4819 18.8839 16.3436 18 15 18H9C7.65642 18 6.51814 18.8839 6.13659 20.1016C7.78397 21.2962 9.80868 22 12 22C14.1913 22 16.216 21.2962 17.8634 20.1016ZM0 12C0 5.37258 5.37258 0 12 0C18.6274 0 24 5.37258 24 12C24 15.7419 22.2862 19.0843 19.6044 21.2834C17.5346 22.9806 14.885 24 12 24C9.11498 24 6.46536 22.9806 4.39561 21.2834C1.71384 19.0843 0 15.7419 0 12ZM12 7C10.329 7 8.98201 8.34737 8.98201 10C8.98201 11.6526 10.329 13 12 13C13.671 13 15.018 11.6526 15.018 10C15.018 8.34737 13.671 7 12 7ZM6.98201 10C6.98201 7.23435 9.23287 5 12 5C14.7671 5 17.018 7.23435 17.018 10C17.018 12.7656 14.7671 15 12 15C9.23287 15 6.98201 12.7657 6.98201 10Z" fill="#293644"></path>
</svg>